<?xml version="1.0" encoding="utf-8"?>
<!-- Generator: Adobe Illustrator 23.0.0, SVG Export Plug-In . SVG Version: 6.00 Build 0)  -->
<svg version="1.1" xmlns="http://www.w3.org/2000/svg" xmlns:xlink="http://www.w3.org/1999/xlink" x="0px" y="0px" width="1400px"
	 height="1400px" viewBox="0 0 1400 1400" enable-background="new 0 0 1400 1400" xml:space="preserve">
<g id="Background">
	<rect fill="#FF742E" width="1400" height="1400"/>
</g>
<g id="Hotdog">
	<g>
		<g>
			<g>
				<path fill="#A06D4A" d="M936.8,846.5H463.2c-18.5,0-33.6-15-33.6-33.6l0,0c0-18.5,15-33.6,33.6-33.6h473.5
					c18.5,0,33.6,15,33.6,33.6l0,0C970.3,831.5,955.3,846.5,936.8,846.5z"/>
			</g>
			<g>
				<path fill="#995B31" d="M936.8,779.4H915c2.2,4.5,3.5,9.6,3.5,15v0c0,18.5-15,33.6-33.6,33.6H433.2c5.5,11,16.9,18.6,30.1,18.6
					h473.5c18.5,0,33.6-15,33.6-33.6v0C970.3,794.4,955.3,779.4,936.8,779.4z"/>
			</g>
			<g>
				<path fill="#040B28" d="M936.8,852H463.2c-21.5,0-39.1-17.5-39.1-39.1c0-21.5,17.5-39.1,39.1-39.1h473.5
					c21.5,0,39.1,17.5,39.1,39.1C975.8,834.5,958.3,852,936.8,852z M463.2,784.9c-15.5,0-28.1,12.6-28.1,28.1s12.6,28.1,28.1,28.1
					h473.5c15.5,0,28.1-12.6,28.1-28.1s-12.6-28.1-28.1-28.1H463.2z"/>
			</g>
			<g>
				<path fill="#E5AD60" d="M955.6,651.6H444.4c-14,0-25.3-11.3-25.3-25.3v0c0-112,90.8-202.8,202.8-202.8h156
					c112,0,202.8,90.8,202.8,202.8v0C980.9,640.2,969.5,651.6,955.6,651.6z"/>
			</g>
			<g>
				<path fill="#DB9542" d="M946.1,559.1v19.7c0,14-11.3,25.3-25.3,25.3H420.4c-0.8,7.3-1.2,14.7-1.2,22.2v0c0,7,2.8,13.3,7.4,17.9
					c4.6,4.6,10.9,7.4,17.9,7.4h511.1c7,0,13.3-2.8,17.9-7.4c4.6-4.6,7.4-10.9,7.4-17.9v0c0-48.1-16.8-92.4-44.8-127.2
					C942.5,517.9,946.1,538.1,946.1,559.1z"/>
			</g>
			<g>
				<path fill="#FCBC70" d="M433.3,643.7L433.3,643.7c0-112,90.8-202.8,202.8-202.8h156c59.7,0,113.4,25.8,150.5,66.9
					c-36.8-51.1-96.8-84.3-164.6-84.3H622c-112,0-202.8,90.8-202.8,202.8v0c0,10.2,6,19,14.7,23
					C433.5,647.5,433.3,645.6,433.3,643.7z"/>
			</g>
			<g>
				<path fill="#040B28" d="M955.6,657.1H444.4c-17,0-30.8-13.8-30.8-30.8c0-114.9,93.5-208.3,208.3-208.3h156
					c114.9,0,208.3,93.5,208.3,208.3C986.3,643.3,972.5,657.1,955.6,657.1z M622,428.9c-108.8,0-197.3,88.5-197.3,197.3
					c0,10.9,8.9,19.8,19.8,19.8h511.1c10.9,0,19.8-8.9,19.8-19.8c0-108.8-88.5-197.3-197.3-197.3H622z"/>
			</g>
			<g>
				<path fill="#DB9542" d="M449.7,846.5h500.6c14,0,25.3,11.3,25.3,25.3v0c0,57.8-46.9,104.7-104.7,104.7H529.1
					c-57.8,0-104.7-46.9-104.7-104.7v0C424.4,857.9,435.7,846.5,449.7,846.5z"/>
			</g>
			<g>
				<path fill="#E5AD60" d="M852.2,929.6c49.5,0,90.7-35.6,100.6-83c-0.6-0.1-1.3-0.1-2-0.1H449.2c-13.7,0-24.8,11.3-24.8,25.3v0
					c0,6.2,0.5,12.2,1.5,18.1c18.8,24.2,47.9,39.8,80.6,39.8H852.2z"/>
			</g>
			<g>
				<path fill="#040B28" d="M870.9,982.1H529.1c-60.8,0-110.2-49.5-110.2-110.2c0-17,13.8-30.8,30.8-30.8h500.6
					c17,0,30.8,13.8,30.8,30.8C981.1,932.6,931.6,982.1,870.9,982.1z M449.7,852c-10.9,0-19.8,8.9-19.8,19.8
					c0,54.7,44.5,99.2,99.2,99.2h341.7c54.7,0,99.2-44.5,99.2-99.2c0-10.9-8.9-19.8-19.8-19.8H449.7z"/>
			</g>
			<g>
				<g>
					<rect x="449.4" y="651.6" fill="#A06D4A" width="250.6" height="37.6"/>
				</g>
				<g>
					<rect x="700" y="651.6" fill="#A06D4A" width="250.6" height="37.6"/>
				</g>
			</g>
			<g>
				<g>
					<path fill="#040B28" d="M705.5,694.7H443.9v-48.6h261.6V694.7z M454.9,683.7h239.6v-26.6H454.9V683.7z"/>
				</g>
				<g>
					<path fill="#040B28" d="M956.1,694.7H694.5v-48.6h261.6V694.7z M705.5,683.7h239.6v-26.6H705.5V683.7z"/>
				</g>
			</g>
			<g>
				<g>
					<path fill="#D94B4E" d="M687,779.4H453.1c-7.2,0-13-5.8-13-13v-24.1c0-7.2,5.8-13,13-13H687c7.2,0,13,5.8,13,13v24.1
						C700,773.6,694.2,779.4,687,779.4z"/>
				</g>
				<g>
					<path fill="#D94B4E" d="M946.9,779.4H713c-7.2,0-13-5.8-13-13v-24.1c0-7.2,5.8-13,13-13h233.9c7.2,0,13,5.8,13,13v24.1
						C959.8,773.6,954,779.4,946.9,779.4z"/>
				</g>
				<g>
					<path fill="#040B28" d="M687,784.9H453.1c-10.2,0-18.5-8.3-18.5-18.5v-24.1c0-10.2,8.3-18.5,18.5-18.5H687
						c10.2,0,18.5,8.3,18.5,18.5v24.1C705.5,776.6,697.2,784.9,687,784.9z M453.1,734.9c-4.1,0-7.5,3.3-7.5,7.5v24.1
						c0,4.1,3.3,7.5,7.5,7.5H687c4.1,0,7.5-3.3,7.5-7.5v-24.1c0-4.1-3.3-7.5-7.5-7.5H453.1z"/>
				</g>
				<g>
					<path fill="#040B28" d="M946.9,784.9H713c-10.2,0-18.5-8.3-18.5-18.5v-24.1c0-10.2,8.3-18.5,18.5-18.5h233.9
						c10.2,0,18.5,8.3,18.5,18.5v24.1C965.3,776.6,957,784.9,946.9,784.9z M713,734.9c-4.1,0-7.5,3.3-7.5,7.5v24.1
						c0,4.1,3.3,7.5,7.5,7.5h233.9c4.1,0,7.5-3.3,7.5-7.5v-24.1c0-4.1-3.3-7.5-7.5-7.5H713z"/>
				</g>
			</g>
			<g>
				<path fill="#FFDC31" d="M922.2,737.6h13.8c5.5,0,10-5.2,10-11.7l0,0c0-6.5-4.5-11.7-10-11.7H463.9c-5.5,0-10,5.2-10,11.7l0,0
					c0,6.5,4.5,11.7,10,11.7h222.6c17.2,0,33.8,7.5,46.5,20.9l66.2,69.9c3.9,4.1,9.9,4,13.7-0.2l61.5-68.3
					C887.3,745.6,904.4,737.6,922.2,737.6z"/>
			</g>
			<g>
				<path fill="#040B28" d="M806,838.1c-4,0-7.8-1.7-10.7-4.8l-66.2-69.9c-11.7-12.4-26.8-19.2-42.5-19.2H463.9
					c-8.6,0-15.5-7.7-15.5-17.2c0-9.5,7-17.2,15.5-17.2h472.1c8.6,0,15.5,7.7,15.5,17.2c0,9.5-7,17.2-15.5,17.2h-13.8
					c-16.3,0-31.8,7.3-43.7,20.5L817,833c-2.9,3.2-6.7,5-10.8,5.1C806.1,838.1,806.1,838.1,806,838.1z M463.9,720.7
					c-2.5,0-4.5,2.8-4.5,6.2c0,3.4,2.1,6.2,4.5,6.2h222.6c18.7,0,36.7,8,50.5,22.6l66.2,69.9c0.8,0.9,1.8,1.3,2.8,1.3
					c1,0,2-0.5,2.8-1.4l61.5-68.3c14-15.6,32.4-24.1,51.9-24.1h13.8c2.5,0,4.5-2.8,4.5-6.2c0-3.4-2.1-6.2-4.5-6.2H463.9z"/>
			</g>
			<g>
				<path fill="#5FA200" d="M989.1,704c-0.2-8-4.9-14.8-11.5-17c-15.7-5.2-19-17.9-40.9-17.9c-26.3,0-26.3,20-52.6,20
					c-26.3,0-26.3-20-52.6-20c-26.3,0-26.3,20-52.6,20c-26.3,0-26.3-20-52.6-20c-26.3,0-26.3,20-52.6,20c-26.3,0-26.3-20-52.6-20
					c-26.3,0-26.3,20-52.6,20c-26.3,0-26.3-20-52.6-20c-26.3,0-26.3,20-52.6,20c-14.3,0-21-6.4-28.3-12c-10.6-8-24.5,1.1-24.1,15.8
					l0,0.2c0.2,8,4.9,14.8,11.5,17c15.7,5.2,19,17.9,40.9,17.9c26.3,0,26.3-20,52.6-20c26.3,0,26.3,20,52.6,20
					c26.3,0,26.3-20,52.6-20c26.3,0,26.3,20,52.6,20c26.3,0,26.3-20,52.6-20c26.3,0,26.3,20,52.6,20c26.3,0,26.3-20,52.6-20
					c26.3,0,26.3,20,52.6,20c26.3,0,26.3-20,52.6-20c14.3,0,21,6.4,28.3,12c10.6,8,24.5-1.1,24.1-15.8L989.1,704z"/>
			</g>
			<g>
				<path fill="#040B28" d="M884,733.4c-15,0-22.8-5.9-29.6-11.1c-6.3-4.8-11.7-8.9-23-8.9c-11.3,0-16.7,4.1-23,8.9
					c-6.9,5.2-14.6,11.1-29.6,11.1s-22.8-5.9-29.6-11.1c-6.3-4.8-11.7-8.9-23-8.9c-11.3,0-16.7,4.1-23,8.9
					c-6.9,5.2-14.6,11.1-29.6,11.1c-15,0-22.8-5.9-29.6-11.1c-6.3-4.8-11.7-8.9-23-8.9c-11.3,0-16.7,4.1-23,8.9
					c-6.9,5.2-14.6,11.1-29.6,11.1c-15,0-22.8-5.9-29.6-11.1c-6.3-4.8-11.7-8.9-23-8.9c-11.3,0-16.7,4.1-23,8.9
					c-6.9,5.2-14.6,11.1-29.6,11.1c-15.3,0-23-5.7-29.8-10.8c-3.9-2.9-7.7-5.7-12.9-7.4c-8.9-3-15-11.9-15.3-22.1l0-0.2
					c-0.2-9.7,4.5-18.2,12.3-22.2c6.8-3.5,14.5-2.7,20.6,2c0.7,0.6,1.5,1.1,2.2,1.7c6.3,4.9,11.8,9.2,22.8,9.2
					c11.3,0,16.7-4.1,23-8.9c6.9-5.2,14.6-11.1,29.6-11.1c15,0,22.8,5.9,29.6,11.1c6.3,4.8,11.7,8.9,23,8.9c11.3,0,16.7-4.1,23-8.9
					c6.9-5.2,14.6-11.1,29.6-11.1s22.8,5.9,29.6,11.1c6.3,4.8,11.7,8.9,23,8.9c11.3,0,16.7-4.1,23-8.9c6.9-5.2,14.6-11.1,29.6-11.1
					c15,0,22.8,5.9,29.6,11.1c6.3,4.8,11.7,8.9,23,8.9c11.3,0,16.7-4.1,23-8.9c6.9-5.2,14.6-11.1,29.6-11.1c15,0,22.8,5.9,29.6,11.1
					c6.3,4.8,11.7,8.9,23,8.9c11.3,0,16.7-4.1,23-8.9c6.9-5.2,14.6-11.1,29.6-11.1c15.3,0,23,5.7,29.8,10.8
					c3.9,2.9,7.7,5.7,12.9,7.4c8.9,3,15,11.9,15.3,22.1l0,0.2c0.2,9.7-4.5,18.2-12.3,22.2c-6.8,3.5-14.5,2.7-20.6-2
					c-0.7-0.6-1.5-1.1-2.2-1.7c-6.3-4.9-11.8-9.2-22.8-9.2c-11.3,0-16.7,4.1-23,8.9C906.8,727.5,899,733.4,884,733.4z M831.4,702.4
					c15,0,22.8,5.9,29.6,11.1c6.3,4.8,11.7,8.9,23,8.9c11.3,0,16.7-4.1,23-8.9c6.9-5.2,14.6-11.1,29.6-11.1
					c14.8,0,22.6,6.1,29.5,11.5c0.7,0.6,1.4,1.1,2.1,1.6c3.8,2.9,7.2,1.8,9,0.9c4-2,6.5-6.8,6.4-12.2l0-0.2
					c-0.1-5.6-3.3-10.5-7.8-12c-6.9-2.3-11.7-5.9-15.9-9c-6.2-4.6-11.6-8.6-23.3-8.6c-11.3,0-16.7,4.1-23,8.9
					c-6.9,5.2-14.6,11.1-29.6,11.1c-15,0-22.8-5.9-29.6-11.1c-6.3-4.8-11.7-8.9-23-8.9c-11.3,0-16.7,4.1-23,8.9
					c-6.9,5.2-14.6,11.1-29.6,11.1c-15,0-22.8-5.9-29.6-11.1c-6.3-4.8-11.7-8.9-23-8.9c-11.3,0-16.7,4.1-23,8.9
					c-6.9,5.2-14.6,11.1-29.6,11.1c-15,0-22.8-5.9-29.6-11.1c-6.3-4.8-11.7-8.9-23-8.9c-11.3,0-16.7,4.1-23,8.9
					c-6.9,5.2-14.6,11.1-29.6,11.1c-15,0-22.8-5.9-29.6-11.1c-6.3-4.8-11.7-8.9-23-8.9c-11.3,0-16.7,4.1-23,8.9
					c-6.9,5.2-14.6,11.1-29.6,11.1c-14.8,0-22.6-6.1-29.5-11.5c-0.7-0.6-1.4-1.1-2.1-1.6c-3.8-2.9-7.2-1.8-9-0.9
					c-4,2-6.5,6.8-6.4,12.2l0,0.2c0.1,5.6,3.3,10.5,7.8,12c6.9,2.3,11.7,5.9,15.9,9c6.2,4.6,11.6,8.6,23.3,8.6
					c11.3,0,16.7-4.1,23-8.9c6.9-5.2,14.6-11.1,29.6-11.1c15,0,22.8,5.9,29.6,11.1c6.3,4.8,11.7,8.9,23,8.9c11.3,0,16.7-4.1,23-8.9
					c6.9-5.2,14.6-11.1,29.6-11.1c15,0,22.8,5.9,29.6,11.1c6.3,4.8,11.7,8.9,23,8.9c11.3,0,16.7-4.1,23-8.9
					c6.9-5.2,14.6-11.1,29.6-11.1c15,0,22.8,5.9,29.6,11.1c6.3,4.8,11.7,8.9,23,8.9c11.3,0,16.7-4.1,23-8.9
					C808.7,708.3,816.4,702.4,831.4,702.4z"/>
			</g>
			<g>
				<path fill="#FFDC31" d="M922.2,870h13.8c5.5,0,10-5.2,10-11.7l0,0c0-6.5-4.5-11.7-10-11.7H463.9c-5.5,0-10,5.2-10,11.7l0,0
					c0,6.5,4.5,11.7,10,11.7h222.6c17.2,0,33.8,7.5,46.5,20.9l66.2,69.9c3.9,4.1,9.9,4,13.7-0.2l61.5-68.3
					C887.3,878,904.4,870,922.2,870z"/>
			</g>
			<g>
				<path fill="#040B28" d="M806,969.4c-4,0-7.8-1.7-10.7-4.8l-66.2-69.9c-11.7-12.4-26.8-19.2-42.5-19.2H463.9
					c-8.6,0-15.5-7.7-15.5-17.2c0-9.5,7-17.2,15.5-17.2h472.1c8.6,0,15.5,7.7,15.5,17.2c0,9.5-7,17.2-15.5,17.2h-13.8
					c-16.3,0-31.8,7.3-43.7,20.5L817,964.3c-2.9,3.2-6.7,5-10.8,5.1C806.1,969.4,806.1,969.4,806,969.4z M463.9,852
					c-2.5,0-4.5,2.8-4.5,6.2c0,3.4,2.1,6.2,4.5,6.2h222.6c18.7,0,36.7,8,50.5,22.6l66.2,69.9c0.8,0.9,1.8,1.3,2.8,1.3
					c1,0,2-0.5,2.8-1.4l61.5-68.3c14-15.6,32.4-24.1,51.9-24.1h13.8c2.5,0,4.5-2.8,4.5-6.2c0-3.4-2.1-6.2-4.5-6.2H463.9z"/>
			</g>
			<g>
				<path fill="#FFDF85" d="M594.7,490.4h-27.5c-3,0-5.5-2.5-5.5-5.5s2.5-5.5,5.5-5.5h27.5c3,0,5.5,2.5,5.5,5.5
					S597.7,490.4,594.7,490.4z"/>
			</g>
			<g>
				<path fill="#FFDF85" d="M839,492.3h-27.5c-3,0-5.5-2.5-5.5-5.5s2.5-5.5,5.5-5.5H839c3,0,5.5,2.5,5.5,5.5S842.1,492.3,839,492.3z
					"/>
			</g>
			<g>
				<path fill="#FFDF85" d="M707.7,532h-26.3c-3,0-5.5-2.5-5.5-5.5s2.5-5.5,5.5-5.5h26.3c3,0,5.5,2.5,5.5,5.5S710.7,532,707.7,532z"
					/>
			</g>
			<g>
				<path fill="#FFDF85" d="M786,563.5h-24.4c-3,0-5.5-2.5-5.5-5.5s2.5-5.5,5.5-5.5H786c3,0,5.5,2.5,5.5,5.5S789.1,563.5,786,563.5z
					"/>
			</g>
			<g>
				<path fill="#FFDF85" d="M532.9,568.1h-21.8c-3,0-5.5-2.5-5.5-5.5s2.5-5.5,5.5-5.5h21.8c3,0,5.5,2.5,5.5,5.5
					S535.9,568.1,532.9,568.1z"/>
			</g>
			<g>
				<path fill="#FFDF85" d="M714.1,471.8H700c-3,0-5.5-2.5-5.5-5.5s2.5-5.5,5.5-5.5h14.1c3,0,5.5,2.5,5.5,5.5
					S717.2,471.8,714.1,471.8z"/>
			</g>
			<g>
				<path fill="#FFDF85" d="M855.7,594.8h-25.8c-3,0-5.5-2.5-5.5-5.5c0-3,2.5-5.5,5.5-5.5h25.8c3,0,5.5,2.5,5.5,5.5
					C861.2,592.3,858.7,594.8,855.7,594.8z"/>
			</g>
			<g>
				<path fill="#FFDF85" d="M633.5,594.8h-22.7c-3,0-5.5-2.5-5.5-5.5c0-3,2.5-5.5,5.5-5.5h22.7c3,0,5.5,2.5,5.5,5.5
					C639,592.3,636.5,594.8,633.5,594.8z"/>
			</g>
		</g>
		<g>
			<path fill="#040B28" d="M1066.6,982.1H333.4c-3,0-5.5-2.5-5.5-5.5s2.5-5.5,5.5-5.5h733.2c3,0,5.5,2.5,5.5,5.5
				S1069.6,982.1,1066.6,982.1z"/>
		</g>
	</g>
</g>
</svg>
